<svg xmlns="http://www.w3.org/2000/svg" pointer-events="none" class="leaflet-zoom-animated" width="1062" height="706" viewBox="-69 19 1062 706" style="transform: translate3d(-69px, 19px, 0px);"><g><path class="leaflet-interactive" stroke="black" stroke-opacity="1" stroke-width="2" stroke-linecap="round" stroke-linejoin="round" fill="#fff" fill-opacity="0.2" fill-rule="evenodd" d="M646 510L644 510L644 508L640 506L632 498L629 491L630 481L626 475L627 468L630 464L628 458L629 454L626 448L628 438L626 436L621 436L620 430L618 431L609 420L613 415L623 408L619 408L616 401L617 399L628 394L631 391L621 389L609 394L607 390L607 372L590 364L581 358L573 356L574 352L572 344L574 341L569 335L567 329L569 324L568 318L566 317L563 308L565 303L561 299L565 297L567 294L568 289L566 285L568 282L563 260L557 256L556 253L556 248L559 244L555 239L557 231L545 227L536 230L524 223L518 209L515 206L502 206L500 214L496 217L496 226L493 223L490 225L487 223L485 228L481 226L478 235L475 231L470 231L469 224L464 221L456 200L442 196L438 184L429 180L424 180L414 192L410 191L408 194L400 199L400 203L392 211L399 211L402 216L402 221L400 221L397 224L402 226L401 233L404 235L403 237L406 245L406 260L408 261L408 270L406 272L409 275L410 280L412 281L410 287L410 294L412 305L417 313L416 326L415 331L413 333L414 338L418 342L417 345L412 349L414 353L411 356L413 358L414 357L413 362L415 366L413 366L408 379L412 389L405 405L405 415L410 419L410 424L408 428L406 428L403 432L396 433L394 429L392 430L391 433L389 432L385 437L382 435L382 433L381 434L372 429L371 431L369 430L363 433L364 436L360 436L358 434L354 435L352 432L350 432L346 436L339 439L324 452L321 452L317 457L309 457L307 461L302 464L300 470L297 472L301 478L300 482L288 489L288 492L285 496L285 502L282 508L272 515L270 518L275 531L274 540L271 543L276 549L271 555L273 559L270 561L277 563L279 565L283 561L289 563L290 571L294 572L292 581L295 583L296 586L301 586L304 588L305 586L308 587L314 597L314 609L318 617L324 623L329 620L330 614L337 611L338 606L341 603L355 606L363 615L364 619L368 622L371 631L374 633L380 628L390 628L395 623L400 622L405 637L415 645L417 645L416 652L418 654L422 652L433 656L436 663L444 662L445 652L449 645L456 642L456 639L458 638L462 640L475 637L479 641L479 647L482 649L487 649L499 642L501 637L510 629L511 625L520 621L521 617L525 614L533 618L539 618L543 622L544 627L550 629L559 622L562 624L565 619L572 612L574 612L576 622L575 629L577 634L573 639L569 650L570 661L576 657L578 651L584 652L590 646L590 644L592 644L600 651L604 648L612 653L615 653L619 648L622 647L624 649L631 645L635 647L646 636L649 636L650 629L654 627L660 628L669 621L670 618L674 619L685 593L692 586L698 589L702 584L701 581L706 579L708 576L708 568L711 562L708 557L709 554L719 534L728 521L737 518L751 519L755 516L751 512L751 508L748 502L746 504L741 500L730 502L727 499L725 499L723 503L722 502L718 504L707 499L700 504L691 501L689 497L687 498L688 503L687 505L686 504L686 506L684 506L684 504L677 506L671 505L666 507L658 506L646 510z" id="六安市"/><path class="leaflet-interactive" stroke="#333" stroke-opacity="1" stroke-width="1" stroke-linecap="round" stroke-linejoin="round" stroke-dasharray="1,6" fill="#eee" fill-opacity="0.5" fill-rule="evenodd" d="M548 507L552 511L551 512L554 520L556 520L559 524L561 523L561 530L557 530L554 535L564 543L568 557L568 559L562 557L560 567L563 569L568 566L571 566L572 570L568 581L575 583L578 582L580 579L580 575L583 569L580 563L583 556L588 559L595 557L603 543L610 540L609 538L614 538L616 536L620 537L628 532L632 532L633 530L634 531L640 528L639 527L641 524L642 525L643 521L644 522L644 517L648 512L644 510L644 508L640 506L632 498L629 491L630 481L626 475L627 468L630 464L628 458L629 454L626 448L628 438L626 436L621 436L620 430L618 431L609 420L613 415L623 408L619 408L616 401L617 399L628 394L631 391L621 389L609 394L607 390L607 372L590 364L581 358L568 355L562 360L564 365L563 372L565 374L565 385L558 387L557 393L559 396L565 396L568 403L566 411L563 415L563 426L559 434L562 435L560 441L563 442L563 446L566 445L569 451L567 453L566 452L566 454L568 460L570 460L566 465L567 468L562 468L556 482L558 485L558 492L555 497L556 499L552 501L552 503L549 506z" id="金安区"/><path class="leaflet-interactive" stroke="#333" stroke-opacity="1" stroke-width="1" stroke-linecap="round" stroke-linejoin="round" stroke-dasharray="1,6" fill="#eee" fill-opacity="0.5" fill-rule="evenodd" d="M573 356L573 342L568 345L564 343L564 347L566 348L564 351L561 351L557 348L554 350L554 357L547 358L543 363L538 355L535 356L531 361L529 356L527 356L526 352L524 351L519 353L510 349L504 356L497 372L489 382L491 382L489 384L486 383L483 386L484 385L485 387L482 390L483 392L485 392L486 396L483 405L485 407L483 410L485 412L481 415L481 421L483 426L481 434L477 432L476 437L467 441L465 444L463 455L445 461L442 466L436 468L437 476L441 477L449 484L458 484L461 487L461 490L464 492L469 492L473 496L483 498L482 502L479 503L478 511L473 517L476 524L482 526L490 524L494 525L498 519L498 516L503 516L506 519L514 521L518 525L519 527L516 528L516 530L522 526L520 519L523 511L519 508L520 503L525 502L536 510L539 506L543 508L545 506L548 507L552 503L552 501L556 499L555 497L558 493L558 486L556 483L560 476L562 468L567 468L566 465L570 460L568 460L566 454L566 452L567 453L569 451L567 448L568 447L567 445L563 446L563 442L560 441L561 435L559 433L563 426L563 416L568 406L568 403L565 396L558 395L557 389L559 386L565 385L565 375L563 372L564 366L562 360L565 356L572 356z" id="裕安区"/><path class="leaflet-interactive" stroke="#333" stroke-opacity="1" stroke-width="1" stroke-linecap="round" stroke-linejoin="round" stroke-dasharray="1,6" fill="#eee" fill-opacity="0.5" fill-rule="evenodd" d="M415 366L413 366L408 379L412 389L405 405L405 415L410 419L409 426L414 428L414 423L420 424L425 428L430 428L442 436L452 433L454 431L456 432L455 435L457 438L464 439L466 441L476 437L477 432L479 432L480 434L483 428L481 422L481 415L485 413L485 411L483 411L483 405L485 403L484 400L486 398L485 392L482 391L485 384L489 384L491 382L489 382L491 379L487 379L482 384L478 383L475 385L474 384L474 386L468 386L466 384L465 385L458 383L453 380L449 374L445 376L441 371L439 375L435 373L435 375L432 376L432 374L429 374L429 371L427 369L427 372L425 372L425 369L423 367L421 367L418 370L415 367z" id="叶集区"/><path class="leaflet-interactive" stroke="#333" stroke-opacity="1" stroke-width="1" stroke-linecap="round" stroke-linejoin="round" stroke-dasharray="1,6" fill="#eee" fill-opacity="0.5" fill-rule="evenodd" d="M573 342L574 341L569 335L567 329L569 324L568 318L566 317L563 308L565 303L561 299L565 297L567 294L568 289L566 285L568 282L563 260L557 256L556 253L556 248L559 244L555 239L557 231L545 227L536 230L524 223L518 209L515 206L502 206L500 214L496 217L496 226L493 223L490 225L487 223L485 228L481 226L478 235L475 231L470 231L469 224L464 221L456 200L442 196L438 184L429 180L424 180L414 192L410 191L408 194L400 199L400 203L392 211L399 211L402 216L402 221L400 221L397 224L402 226L401 233L404 235L403 237L406 245L406 260L408 261L408 270L406 272L409 275L410 280L412 281L410 287L410 294L412 305L417 313L416 326L415 331L413 333L414 338L418 342L417 345L412 349L414 353L411 356L413 358L414 357L413 362L417 370L423 367L425 371L427 372L426 371L429 370L428 371L432 376L434 376L435 373L438 373L439 375L441 372L444 376L449 374L454 381L457 381L457 383L465 385L466 384L468 386L474 386L474 384L482 384L487 379L491 379L497 372L504 356L510 349L519 353L524 351L526 352L527 356L529 356L531 361L535 356L538 355L543 363L547 358L554 357L554 351L557 348L561 351L564 351L566 349L563 343L566 343L568 345L572 342z" id="霍邱县"/><path class="leaflet-interactive" stroke="#333" stroke-opacity="1" stroke-width="1" stroke-linecap="round" stroke-linejoin="round" stroke-dasharray="1,6" fill="#eee" fill-opacity="0.5" fill-rule="evenodd" d="M544 625L545 628L550 629L559 622L562 624L565 619L572 612L574 612L576 622L575 629L577 634L573 639L569 650L570 661L576 657L578 651L584 652L590 646L590 644L592 644L600 651L604 648L612 653L615 653L619 648L622 647L624 649L631 645L635 647L637 646L646 636L649 636L650 629L654 627L660 628L669 621L670 618L675 618L676 612L678 610L683 596L692 586L698 589L700 587L702 584L701 581L706 579L708 576L708 568L711 562L708 557L719 534L728 521L732 519L751 519L754 517L755 516L751 512L750 505L748 502L746 504L741 500L730 502L727 499L725 499L723 503L722 502L718 504L707 499L700 504L691 501L689 497L687 498L688 503L687 505L686 504L686 506L684 506L684 504L677 506L671 505L666 507L658 506L646 510L648 512L644 517L642 525L641 524L639 526L640 528L634 531L633 530L621 537L615 536L616 537L614 538L609 538L610 539L604 542L600 547L595 557L589 559L584 556L582 557L580 565L583 568L578 582L575 583L568 581L569 589L561 593L559 595L558 600L555 602L557 608L554 614L554 618L551 622L548 622L546 619L544 625z" id="舒城县"/><path class="leaflet-interactive" stroke="#333" stroke-opacity="1" stroke-width="1" stroke-linecap="round" stroke-linejoin="round" stroke-dasharray="1,6" fill="#eee" fill-opacity="0.5" fill-rule="evenodd" d="M409 426L401 433L396 433L394 429L392 430L391 433L389 432L385 437L382 435L382 433L381 434L372 429L371 431L369 430L363 433L364 436L360 436L358 434L354 435L352 432L350 432L346 436L339 439L324 452L321 452L317 457L309 457L307 461L302 464L300 470L297 472L301 478L300 482L288 489L288 492L285 496L285 502L282 508L272 515L270 518L275 531L274 540L271 543L276 549L271 555L273 559L270 561L277 563L279 565L283 561L289 563L290 571L294 572L292 581L295 583L296 586L301 586L304 588L305 586L308 587L314 597L314 609L318 617L324 623L329 620L330 614L337 611L338 606L341 603L345 603L355 606L363 615L364 619L368 622L371 631L374 633L380 628L390 628L398 622L400 622L403 628L410 624L414 626L421 620L418 617L418 615L422 603L427 601L431 597L437 596L435 591L439 586L439 583L442 580L446 579L453 572L454 569L450 565L451 553L448 548L449 541L444 536L444 533L446 529L456 522L463 522L475 516L478 512L479 503L482 502L483 498L473 496L469 492L461 490L460 485L450 484L442 477L438 476L436 473L437 467L442 466L445 461L464 454L466 441L464 439L457 438L455 435L455 431L448 435L442 436L431 428L425 428L420 424L414 423L414 428L411 427z" id="金寨县"/><path class="leaflet-interactive" stroke="#333" stroke-opacity="1" stroke-width="1" stroke-linecap="round" stroke-linejoin="round" stroke-dasharray="1,6" fill="#eee" fill-opacity="0.5" fill-rule="evenodd" d="M548 507L546 506L543 508L539 506L536 510L525 502L519 504L519 508L523 511L520 519L522 525L520 528L516 530L515 529L519 527L518 525L514 521L506 519L503 516L499 516L494 525L478 525L476 524L473 517L464 522L456 522L446 529L444 535L448 541L448 547L451 553L450 565L453 566L453 572L446 579L442 580L439 583L439 586L435 591L437 596L429 598L420 606L418 615L418 617L421 619L420 621L414 626L410 624L404 628L403 631L405 637L415 645L417 645L416 652L418 654L422 652L433 656L436 663L444 662L445 652L449 645L456 642L456 639L458 638L462 640L475 637L479 641L479 647L482 649L487 649L499 642L501 637L510 629L511 625L520 621L521 617L525 614L533 618L539 618L544 625L546 619L547 622L552 621L557 609L555 602L558 600L561 593L569 589L568 581L572 570L571 566L563 568L560 567L562 558L568 559L568 557L564 543L554 535L557 530L561 530L561 524L554 520L550 508z" id="霍山县"/></g></svg>